<?xml version="1.0" encoding="utf-8"?>
<svg viewBox="376.3446 285.1477 271.158 302.3636" xmlns="http://www.w3.org/2000/svg">
  <path d="M0 0 C3.0099623 1.69076025 5.92119902 3.44373162 8.80957031 5.33007812 C10.78463858 6.61821051 12.78278974 7.86417406 14.78515625 9.109375 C16.13310211 9.96625124 17.47949612 10.82557426 18.82421875 11.6875 C19.45166992 12.08243652 20.07912109 12.47737305 20.72558594 12.88427734 C25.21383611 15.85160442 28.6359114 19.14235164 30.29020691 24.46342468 C30.72904624 26.71557659 30.84729777 28.79890402 30.8762207 31.09301758 C30.89547356 32.43140434 30.89547356 32.43140434 30.91511536 33.79682922 C30.92250229 34.75719589 30.92988922 35.71756256 30.9375 36.70703125 C30.94557175 37.70901047 30.95364349 38.71098969 30.96195984 39.74333191 C30.97578939 41.86915363 30.98651659 43.99499746 30.99438477 46.12084961 C31.00583621 48.27065651 31.02617768 50.42043654 31.0559082 52.57006836 C31.47195031 82.67617672 31.47195031 82.67617672 24.26953125 92.5078125 C20.01417394 96.68353118 14.6189004 99.48889994 9.45193481 102.38476562 C6.87159331 103.83142428 4.3087078 105.30783254 1.74446106 106.78277588 C0.40867632 107.55091674 -0.92793133 108.31762825 -2.26533508 109.08294678 C-12.76659878 115.1005204 -23.07568175 121.44224306 -33.38769531 127.77685547 C-35.89134186 129.3115245 -38.40297262 130.83171359 -40.91796875 132.34765625 C-50.64217154 138.28363724 -57.78482635 144.45755969 -61.30078125 155.5625 C-61.84071561 160.04629086 -61.81164308 164.48441477 -61.76953125 168.99609375 C-61.77658081 170.26920914 -61.78363037 171.54232452 -61.79089355 172.85401917 C-61.81655892 177.58628873 -61.807408 182.31800356 -61.79571533 187.05029297 C-61.78614011 191.69913384 -61.80630896 196.34728653 -61.83203125 200.99609375 C-61.81505188 202.8121537 -61.81505188 202.8121537 -61.79772949 204.66490173 C-61.8403223 211.86866233 -62.46015491 218.30168708 -66.30078125 224.5625 C-69.36550522 227.44738317 -72.66273841 229.45379836 -76.30078125 231.5625 C-77.89219556 232.50866317 -79.48331689 233.4553192 -81.07421875 234.40234375 C-84.44033256 236.38773376 -87.81277733 238.36093385 -91.203125 240.3046875 C-91.91976318 240.7157373 -92.63640137 241.12678711 -93.37475586 241.55029297 C-99.0228054 244.51857962 -105.10293241 244.39261451 -111.30078125 243.5625 C-115.80635617 241.71211885 -119.66775775 239.18497696 -123.67578125 236.4375 C-124.70316406 235.77234375 -125.73054688 235.1071875 -126.7890625 234.421875 C-142.97389459 223.79862614 -142.97389459 223.79862614 -145.30078125 215.5625 C-145.74279775 211.30061398 -145.72094269 207.0593682 -145.70483398 202.77758789 C-145.71512886 200.86412315 -145.71512886 200.86412315 -145.72563171 198.91200256 C-145.74350984 195.42844643 -145.74240494 191.94514292 -145.73668933 188.46155477 C-145.73358969 185.54664928 -145.73969852 182.63179178 -145.74572808 179.71689314 C-145.75975413 172.83701868 -145.75822808 165.95726844 -145.74682617 159.07739258 C-145.73534661 151.99440658 -145.74942199 144.91179931 -145.77622265 137.8288632 C-145.79841765 131.73350369 -145.80500851 125.63826273 -145.79914623 119.54286569 C-145.79578452 115.90856663 -145.79813902 112.27451028 -145.81539726 108.64024544 C-145.83381346 104.58552388 -145.81964047 100.53153377 -145.80249023 96.47680664 C-145.8121582 95.28226868 -145.82182617 94.08773071 -145.83178711 92.85699463 C-145.75895882 84.62523486 -144.48945491 79.38890839 -139.11328125 72.9375 C-132.20026047 67.099838 -124.24286866 62.6888009 -116.42578125 58.1875 C-114.2859705 56.947456 -112.14666633 55.70653753 -110.0078125 54.46484375 C-108.9038916 53.82401855 -107.7999707 53.18319336 -106.66259766 52.52294922 C-101.12820221 49.29555666 -95.62090227 46.02280795 -90.11328125 42.75 C-83.13049206 38.60153474 -76.14333947 34.46192877 -69.12890625 30.3671875 C-68.53059494 30.01782135 -67.93228363 29.6684552 -67.31584167 29.3085022 C-62.29254787 26.37550909 -62.29254787 26.37550909 -60.06069946 25.07305908 C-53.14502718 21.03409914 -46.25953666 16.95112538 -39.421875 12.78125 C-38.4573214 12.19318825 -38.4573214 12.19318825 -37.47328186 11.59324646 C-34.38499593 9.70827666 -31.30059056 7.81726852 -28.22094727 5.91821289 C-27.12322998 5.2452417 -26.0255127 4.57227051 -24.89453125 3.87890625 C-23.93224609 3.28537354 -22.96996094 2.69184082 -21.97851562 2.08032227 C-14.71348337 -2.03772164 -7.87527681 -3.42970635 0 0 Z " fill="#259795" transform="matrix(1, 0, 0, 1, 616.3007812500001, 343.43750000000006)"/>
  <path d="M0 0 C4.83137947 2.0442478 9.13809432 4.58659531 13.54052734 7.42382812 C16.39586991 9.25369626 19.28381589 11.02547461 22.17578125 12.796875 C26.40134937 15.3978822 30.6223439 18.00538542 34.82421875 20.64453125 C36.14039185 21.46981323 36.14039185 21.46981323 37.4831543 22.31176758 C43.13408665 26.10226106 47.02009342 29.15440692 48.42578125 36.10546875 C48.72025307 39.46013791 48.58731508 42.02346053 46.82519531 44.95336914 C41.74267196 50.88884456 35.93991363 54.35318709 29.125 58.0625 C27.37547955 59.04258561 25.62598374 60.02271981 23.87828064 61.00604248 C22.68267259 61.67835843 21.48610117 62.34896396 20.28858948 63.0178833 C14.34466786 66.3433027 8.51249721 69.84593571 2.6875 73.375 C-5.72476736 78.45265686 -14.17172707 83.46476662 -22.6555481 88.42147827 C-24.48942589 89.49381691 -26.32198309 90.56837428 -28.15405273 91.64379883 C-28.75465012 91.9963121 -29.3552475 92.34882538 -29.9740448 92.71202087 C-31.18225064 93.42117612 -32.39043146 94.13037399 -33.59858704 94.83961487 C-37.18679577 96.94381753 -40.7835207 99.03249144 -44.38702393 101.11038208 C-47.22275112 102.75012003 -50.04779542 104.40812391 -52.875 106.0625 C-53.89658203 106.64515625 -54.91816406 107.2278125 -55.97070312 107.828125 C-65.51099033 113.45065434 -72.20241313 120.08777423 -75.53111649 130.91300392 C-77.37009588 139.09828377 -76.65357865 147.94070522 -76.6015625 156.2734375 C-76.60706981 158.52878585 -76.61520084 160.78412917 -76.62582397 163.03945923 C-76.64860462 168.94561291 -76.64452619 174.85139484 -76.63201904 180.75756836 C-76.61363878 190.23027893 -76.6236735 199.70277515 -76.65787888 209.17543411 C-76.66397481 212.47595961 -76.65073885 215.77601877 -76.63589478 219.07650757 C-76.63884243 221.09967163 -76.64249691 223.12283483 -76.64697266 225.14599609 C-76.63768234 226.05934723 -76.62839203 226.97269836 -76.61882019 227.91372681 C-76.65085471 233.03426986 -77.14516455 236.56820987 -80 241 C-85.89950284 246.58900269 -91.6202414 247.60992783 -99.54931641 247.47705078 C-105.48045552 246.6570815 -109.79729479 243.73663366 -114.6875 240.4375 C-115.64205078 239.82841797 -116.59660156 239.21933594 -117.58007812 238.59179688 C-140.11602516 224.09454027 -140.11602516 224.09454027 -143 212 C-143.42262114 207.79260124 -143.43070254 203.61309428 -143.41992188 199.38696289 C-143.42839142 198.15325455 -143.43686096 196.9195462 -143.44558716 195.64845276 C-143.46488056 192.28873726 -143.4707413 188.92957911 -143.46883965 185.56984639 C-143.4687193 182.75443871 -143.4773092 179.939082 -143.48561716 177.12368864 C-143.50479841 170.47671104 -143.50775403 163.829859 -143.50097656 157.18286133 C-143.49433594 150.3486002 -143.51721258 143.51487878 -143.55429029 136.68072706 C-143.58507378 130.79081006 -143.59633813 124.90106594 -143.59245348 119.01107019 C-143.59039528 115.50297808 -143.5957201 111.99530649 -143.62034607 108.48729134 C-143.646927 104.57212626 -143.63281943 100.65765869 -143.61523438 96.74243164 C-143.62849762 95.59562927 -143.64176086 94.4488269 -143.65542603 93.26727295 C-143.56920055 84.97649551 -141.83218571 78.20254703 -136.13436127 71.95405674 C-131.22979809 67.29726962 -125.41024188 64.13670098 -119.5 60.9375 C-117.44314091 59.79974758 -115.38717866 58.6603726 -113.33203125 57.51953125 C-112.28225098 56.93896973 -111.2324707 56.3584082 -110.15087891 55.76025391 C-105.12245395 52.95109972 -100.15504023 50.04006872 -95.1875 47.125 C-86.84911377 42.24316495 -78.49633913 37.38762943 -70.125 32.5625 C-69.0515332 31.94366943 -67.97806641 31.32483887 -66.87207031 30.68725586 C-62.44732162 28.13723813 -58.0218853 25.58841595 -53.59619141 23.04003906 C-51.32560751 21.73246798 -49.05542155 20.4242056 -46.78564453 19.11523438 C-44.57399199 17.8418489 -42.36015922 16.57224178 -40.14404297 15.30664062 C-35.38612909 12.58118423 -30.67524476 9.83213186 -26.08203125 6.8359375 C-17.56180242 1.31987547 -10.48095784 -2.67598924 0 0 Z " fill="#F0A953" transform="matrix(1, 0, 0, 1, 520.0000000000001, 285.99999999999994)"/>
  <path d="M 0 0 C 3.12 3.12 3.123 6.257 3.177 10.531 C 3.196 11.869 3.196 11.869 3.216 13.234 C 3.223 14.195 3.231 15.155 3.238 16.145 C 3.246 17.147 3.254 18.148 3.263 19.181 C 3.277 21.307 3.287 23.432 3.295 25.558 C 3.307 27.708 3.327 29.858 3.357 32.008 C 3.773 62.114 3.773 62.114 -3.43 71.945 C -7.685 76.121 -13.08 78.926 -18.247 81.822 C -20.828 83.269 -23.391 84.745 -25.955 86.22 C -27.291 86.988 -28.627 87.755 -29.965 88.52 C -40.466 94.538 -50.775 100.88 -61.087 107.214 C -63.591 108.749 -66.102 110.269 -68.617 111.785 C -78.341 117.721 -85.484 123.895 -89 135 C -89.54 139.484 -89.511 143.922 -89.469 148.434 C -89.476 149.707 -89.483 150.98 -89.49 152.292 C -89.516 157.024 -89.507 161.756 -89.495 166.488 C -89.485 171.137 -89.506 175.785 -89.531 180.434 C -89.52 181.644 -89.509 182.855 -89.497 184.102 C -89.54 191.306 -90.159 197.739 -94 204 C -97.065 206.885 -100.362 208.891 -104 211 C -105.591 211.946 -107.183 212.893 -108.773 213.84 C -112.14 215.825 -115.512 217.798 -118.902 219.742 C -119.619 220.153 -120.336 220.564 -121.074 220.988 C -125.045 223.075 -127.933 223.533 -132.464 223.504 C -133.59 223.497 -134.522 223.458 -135.78 223.365 C -136.681 223.298 -138.064 223.117 -139 223 C -139 222.67 -139 222.34 -139 222 C -138.216 221.918 -137.432 221.835 -136.625 221.75 C -133.922 221.284 -133.922 221.284 -132.851 219.285 C -131.854 216.607 -131.752 214.546 -131.755 211.689 C -131.751 210.612 -131.747 209.536 -131.743 208.427 C -131.749 207.251 -131.755 206.075 -131.76 204.863 C -131.757 202.999 -131.757 202.999 -131.754 201.097 C -131.751 198.395 -131.751 195.694 -131.756 192.992 C -131.764 188.713 -131.753 184.434 -131.739 180.155 C -131.701 167.986 -131.683 155.818 -131.695 143.649 C -131.701 136.927 -131.689 130.205 -131.658 123.483 C -131.64 119.238 -131.643 114.993 -131.662 110.747 C -131.671 107.469 -131.647 104.191 -131.628 100.914 C -131.639 99.75 -131.651 98.586 -131.663 97.386 C -131.567 88.847 -129.751 81.83 -123.646 75.596 C -122.822 75.053 -121.998 74.509 -121.148 73.949 C -119.704 72.985 -119.704 72.985 -118.229 72.001 C -117.164 71.341 -116.098 70.68 -115 70 C -114.426 69.644 -113.852 69.288 -113.26 68.921 C -109.437 66.567 -105.576 64.282 -101.697 62.021 C -98.131 59.941 -94.576 57.843 -91.02 55.746 C -90.319 55.333 -89.618 54.921 -88.896 54.495 C -83.316 51.203 -77.8 47.818 -72.312 44.375 C -64.031 39.189 -55.628 34.233 -47.187 29.313 C -37.646 23.75 -28.171 18.114 -18.856 12.177 C -16.753 10.843 -14.639 9.526 -12.523 8.211 C -11.778 7.747 -11.033 7.284 -10.265 6.806 C -8.83 5.915 -7.395 5.024 -5.96 4.133 C -2.812 2.288 -2.812 2.288 0 0 Z" fill="#207279" transform="matrix(1, 0, 0, 1, 644, 363.99999999999994)"/>
  <path d="M0 0 C0.49286499 0.38515778 0.98572998 0.77031555 1.49353027 1.16714478 C7.3032731 5.67772953 13.47035446 9.49627228 19.75 13.3125 C20.86802002 13.99602539 21.98604004 14.67955078 23.13793945 15.38378906 C26.13204199 17.21369714 29.12942436 19.03816114 32.12774658 20.86114502 C34.0297246 22.01808089 35.93076969 23.17653524 37.83154297 24.33544922 C41.61554595 26.64246498 45.40106535 28.94697768 49.1875 31.25 C49.78195923 31.61171295 50.37641846 31.9734259 50.9888916 32.34609985 C52.69375664 33.3828621 54.39959723 34.41801962 56.10546875 35.453125 C57.07637451 36.04254883 58.04728027 36.63197266 59.04760742 37.23925781 C61.249276 38.55228467 63.45785269 39.84075438 65.68452454 41.11004639 C67.32568489 42.04557343 67.32568489 42.04557343 69 43 C68.57498703 43.80940536 68.14997406 44.61881073 67.71208191 45.45274353 C62.12178978 57.42944299 62.18662761 68.52729855 62.30078125 81.56640625 C62.2971405 83.81746601 62.29042783 86.06852267 62.2808075 88.31956482 C62.2618662 94.20110708 62.27566812 100.08205347 62.29931641 105.96356201 C62.33390769 115.40650099 62.32790091 124.84929917 62.3031826 134.29224968 C62.30081679 137.57952452 62.3185843 140.86625181 62.3384552 144.15345764 C62.3387033 146.16683963 62.33830595 148.18022184 62.3371582 150.19360352 C62.34801956 151.10224152 62.35888092 152.01087952 62.37007141 152.947052 C62.34667251 158.05870619 61.84886483 161.57496507 59 166 C53.10049716 171.58900269 47.3797586 172.60992783 39.45068359 172.47705078 C33.51954448 171.6570815 29.20270521 168.73663366 24.3125 165.4375 C23.35794922 164.82841797 22.40339844 164.21933594 21.41992188 163.59179688 C-1.12246321 149.09039871 -1.12246321 149.09039871 -4 137 C-4.41852732 132.78693836 -4.42061042 128.60241542 -4.40405273 124.37109375 C-4.41091599 123.13577911 -4.41777924 121.90046448 -4.42485046 120.62771606 C-4.43993999 117.2639271 -4.44163386 113.90069585 -4.43590808 110.53691483 C-4.43280162 107.71893052 -4.43892462 104.90099555 -4.44494683 102.0830183 C-4.45895541 95.43127972 -4.45746085 88.77966968 -4.44604492 82.12792969 C-4.43456106 75.28576469 -4.44865193 68.44399156 -4.4754414 61.60187817 C-4.49765078 55.70688477 -4.50422422 49.81201392 -4.49836498 43.9169817 C-4.49500742 40.4050793 -4.4973301 36.89342813 -4.51461601 33.38156128 C-4.53306125 29.46385522 -4.5188442 25.54662562 -4.50170898 21.62890625 C-4.51137695 20.47850861 -4.52104492 19.32811096 -4.53100586 18.14285278 C-4.46773478 11.21763366 -3.4088734 6.06247087 0 0 Z " fill="#EA8153" transform="matrix(1, 0, 0, 1, 381, 360.99999999999994)"/>
  <path d="M0 0 C2.75329021 1.79562405 4.52627461 3.05254922 6 6 C6.2737184 10.53626037 6.2317344 15.08143275 6.25 19.625 C6.270625 20.88441406 6.29125 22.14382813 6.3125 23.44140625 C6.37433382 38.17331328 6.37433382 38.17331328 1.26806641 43.96411133 C-4.37171326 49.32911251 -10.92318577 53.35648402 -17.61035156 57.2746582 C-19.3757706 58.31295321 -21.12526846 59.37498418 -22.875 60.43945312 C-32.80526894 66.38139974 -41.89851974 69.54676052 -53.5 69.4375 C-54.28375 69.45748047 -55.0675 69.47746094 -55.875 69.49804688 C-61.47218599 69.49325476 -61.47218599 69.49325476 -63.96875 67.16015625 C-66.3476762 62.17702676 -66.25385779 57.72713029 -66.3125 52.3125 C-66.35600586 51.00249023 -66.35600586 51.00249023 -66.40039062 49.66601562 C-66.48162697 41.29867172 -63.80621205 35.08816839 -58 29 C-55.76960771 27.4015522 -53.59583995 25.96536933 -51.25 24.5625 C-50.57259766 24.1485498 -49.89519531 23.73459961 -49.19726562 23.30810547 C-46.80685088 21.85708363 -44.40516776 20.42643563 -42 19 C-41.02095703 18.41879395 -40.04191406 17.83758789 -39.03320312 17.23876953 C-35.8595324 15.3605048 -32.68121963 13.49044888 -29.5 11.625 C-28.48583008 11.03017822 -27.47166016 10.43535645 -26.42675781 9.82250977 C-8.31195784 -0.71654809 -8.31195784 -0.71654809 0 0 Z " fill="#1F7177" transform="matrix(1, 0, 0, 1, 641, 467.00000000000006)"/>
</svg>