<svg xmlns="http://www.w3.org/2000/svg" width="256" height="70" fill="none" viewBox="0 0 256 70">
  <path fill="#fff" d="M0 0h256v70H0z"/>
  <g clip-path="url(#a)">
    <path fill="#259795" d="M72.698 15.83c.611.343 1.202.699 1.788 1.081.4.262.806.515 1.213.767l.82.524.385.242c.911.603 1.606 1.27 1.942 2.35.089.457.113.88.118 1.346l.008.549.005.59.005.616a191.048 191.048 0 0 0 .019 2.604c.084 6.11.084 6.11-1.377 8.105-.864.847-1.959 1.417-3.007 2.004-.524.294-1.044.594-1.565.893l-.814.467c-2.13 1.22-4.223 2.508-6.316 3.794-.508.311-1.017.62-1.528.927-1.973 1.205-3.423 2.458-4.137 4.712-.11.91-.103 1.81-.095 2.726l-.004.783c-.005.96-.003 1.92-.001 2.88.002.944-.002 1.888-.007 2.831l.007.745c-.009 1.462-.135 2.767-.914 4.038-.622.585-1.291.992-2.03 1.42l-.968.577c-.684.403-1.368.803-2.056 1.198l-.44.252c-1.147.603-2.381.577-3.639.409-.914-.376-1.698-.889-2.511-1.446l-.632-.41c-3.285-2.155-3.285-2.155-3.757-3.827-.09-.865-.085-1.725-.082-2.594l-.004-.785c-.004-.707-.004-1.414-.003-2.12.001-.592 0-1.184-.001-1.775a975.34 975.34 0 0 1 0-4.19 884.99 884.99 0 0 0-.006-4.311 805.416 805.416 0 0 1-.005-3.712c0-.737 0-1.475-.004-2.212-.003-.823 0-1.646.003-2.469l-.006-.734c.015-1.67.273-2.734 1.364-4.043 1.403-1.185 3.018-2.08 4.604-2.993l1.303-.756.678-.394c1.124-.655 2.241-1.32 3.36-1.983a637.928 637.928 0 0 1 4.258-2.513l.368-.215 1.472-.86c1.404-.82 2.801-1.648 4.189-2.494l.395-.241a588.24 588.24 0 0 0 1.878-1.152l.675-.414.592-.365c1.474-.836 2.862-1.118 4.46-.422Z"/>
    <path fill="#F0A953" d="M53.154 4.173c.98.415 1.855.93 2.748 1.507.58.371 1.166.73 1.753 1.09a334.012 334.012 0 0 1 3.106 1.931c1.147.77 1.936 1.389 2.221 2.8.06.68.033 1.2-.325 1.795-1.031 1.205-2.209 1.908-3.592 2.66L58 16.555c-.242.136-.485.273-.728.408a119.54 119.54 0 0 0-3.572 2.102 417.64 417.64 0 0 1-5.144 3.054c-.372.217-.744.436-1.115.654l-.37.217-.735.431c-.729.427-1.459.851-2.19 1.273-.575.333-1.149.67-1.723 1.005l-.628.358c-1.936 1.141-3.294 2.488-3.97 4.685-.373 1.662-.227 3.456-.217 5.147a607.033 607.033 0 0 0-.006 4.969c.004 1.922.002 3.845-.005 5.767-.001.67.001 1.34.004 2.01l-.002 1.232.006.561c-.007 1.04-.107 1.757-.686 2.656-1.198 1.134-2.359 1.342-3.968 1.315-1.204-.167-2.08-.76-3.072-1.43-.194-.123-.388-.246-.587-.374-4.574-2.942-4.574-2.942-5.159-5.396-.086-.854-.087-1.703-.085-2.56l-.005-.759a324.3 324.3 0 0 1-.005-2.045 1030.027 1030.027 0 0 1-.006-5.761c0-1.387-.004-2.774-.012-4.161-.006-1.195-.008-2.39-.007-3.586 0-.712 0-1.424-.006-2.136-.005-.795-.002-1.589.001-2.384L24 23.102c.017-1.682.37-3.057 1.526-4.325.996-.945 2.177-1.587 3.376-2.236.418-.23.835-.462 1.252-.694l.646-.357c1.02-.57 2.028-1.16 3.036-1.752 1.693-.99 3.388-1.976 5.087-2.956l.66-.38a7826.258 7826.258 0 0 1 5.424-3.122 57.552 57.552 0 0 0 2.854-1.719c1.73-1.12 3.166-1.93 5.293-1.387Z"/>
    <path fill="#207279" d="M78.32 20.003c.633.633.634 1.27.644 2.137l.008.549.005.59.005.616a191.048 191.048 0 0 0 .019 2.604c.084 6.11.084 6.11-1.377 8.105-.864.847-1.959 1.416-3.007 2.004-.524.294-1.044.594-1.565.893l-.814.467c-2.13 1.22-4.223 2.508-6.316 3.793-.508.312-1.017.62-1.528.928-1.973 1.205-3.423 2.458-4.137 4.712-.11.91-.103 1.81-.095 2.726l-.004.783c-.005.96-.003 1.92-.001 2.88.002.944-.002 1.888-.007 2.831l.007.745c-.01 1.462-.135 2.767-.914 4.038-.622.585-1.291.992-2.03 1.42l-.968.577a197.078 197.078 0 0 1-2.497 1.45c-.806.424-1.392.517-2.311.511a9.237 9.237 0 0 1-.673-.028c-.183-.014-.464-.05-.654-.074v-.203c.16-.017.318-.034.482-.05.549-.095.549-.095.766-.501.202-.544.223-.962.223-1.542l.002-.662-.003-.723V59.17c-.001-.869 0-1.737.004-2.605.007-2.47.011-4.94.009-7.41-.002-1.363 0-2.728.007-4.092.004-.861.003-1.723 0-2.585-.003-.665.002-1.33.006-1.995l-.007-.716c.02-1.733.388-3.157 1.627-4.422l.507-.334.593-.396.655-.406.353-.219c.776-.478 1.56-.941 2.347-1.4.723-.422 1.445-.848 2.166-1.274l.432-.254a144.158 144.158 0 0 0 3.365-2.053 186.688 186.688 0 0 1 5.1-3.057 169.7 169.7 0 0 0 5.749-3.478c.427-.27.856-.538 1.285-.805l.458-.285.874-.542c.639-.375.639-.375 1.21-.84Z"/>
    <path fill="#EA8153" d="m24.945 19.394.303.237c1.179.915 2.43 1.69 3.705 2.465l.688.42 1.824 1.112 1.158.705a2572.589 2572.589 0 0 0 3.708 2.256l.597.363c.447.266.895.527 1.347.785l.673.384-.261.497c-1.135 2.431-1.122 4.683-1.098 7.33l-.005 1.37c-.003 1.194 0 2.387.004 3.58a918.15 918.15 0 0 1 .001 5.75c0 .667.003 1.334.007 2.001v1.226l.007.559c-.005 1.037-.106 1.751-.684 2.649-1.198 1.134-2.359 1.342-3.968 1.315-1.204-.167-2.08-.76-3.072-1.43-.194-.123-.388-.246-.587-.374-4.575-2.943-4.575-2.943-5.159-5.396-.085-.855-.085-1.705-.082-2.563l-.004-.76a332.85 332.85 0 0 1-.003-2.048c.001-.572 0-1.144-.001-1.716-.003-1.35-.003-2.7 0-4.05.002-1.388-.001-2.777-.006-4.165a753.298 753.298 0 0 1-.005-3.59c0-.712 0-1.425-.003-2.137-.004-.796-.001-1.59.002-2.386l-.006-.707c.013-1.405.228-2.452.92-3.682Z"/>
    <path fill="#1F7177" d="M77.71 40.906c.56.365.92.62 1.219 1.218.055.92.047 1.843.05 2.765l.013.775c.012 2.99.012 2.99-1.024 4.165-1.144 1.088-2.474 1.906-3.831 2.7-.358.212-.713.427-1.069.643-2.015 1.206-3.86 1.849-6.215 1.826l-.482.013c-1.136-.001-1.136-.001-1.642-.475-.483-1.011-.464-1.914-.476-3.013l-.018-.537c-.016-1.698.527-2.959 1.705-4.194a19.45 19.45 0 0 1 1.37-.9l.416-.255c.486-.295.973-.585 1.461-.875l.602-.357a559.83 559.83 0 0 1 2.559-1.505c3.676-2.14 3.676-2.14 5.363-1.994Z"/>
  </g>
  <g clip-path="url(#b)">
    <path fill="#259795" d="M72.698 15.83c.611.343 1.202.699 1.788 1.081.4.262.806.515 1.213.767l.82.524.385.242c.911.603 1.606 1.27 1.942 2.35.089.457.113.88.118 1.346l.008.549.005.59.005.616a191.048 191.048 0 0 0 .019 2.604c.084 6.11.084 6.11-1.377 8.105-.864.847-1.959 1.417-3.007 2.004-.524.294-1.044.594-1.565.893l-.814.467c-2.13 1.22-4.223 2.508-6.316 3.794-.508.311-1.017.62-1.528.927-1.973 1.205-3.423 2.458-4.137 4.712-.11.91-.103 1.81-.095 2.726l-.004.783c-.005.96-.003 1.92-.001 2.88.002.944-.002 1.888-.007 2.831l.007.745c-.009 1.462-.135 2.767-.914 4.038-.622.585-1.291.992-2.03 1.42l-.968.577c-.684.403-1.368.803-2.056 1.198l-.44.252c-1.147.603-2.381.577-3.639.409-.914-.376-1.698-.889-2.511-1.446l-.632-.41c-3.285-2.155-3.285-2.155-3.757-3.827-.09-.865-.085-1.725-.082-2.594l-.004-.785c-.004-.707-.004-1.414-.003-2.12.001-.592 0-1.184-.001-1.775a975.34 975.34 0 0 1 0-4.19 884.99 884.99 0 0 0-.006-4.311 805.416 805.416 0 0 1-.005-3.712c0-.737 0-1.475-.004-2.212-.003-.823 0-1.646.003-2.469l-.006-.734c.015-1.67.273-2.734 1.364-4.043 1.403-1.185 3.018-2.08 4.604-2.993l1.303-.756.678-.394c1.124-.655 2.241-1.32 3.36-1.983a637.928 637.928 0 0 1 4.258-2.513l.368-.215 1.472-.86c1.404-.82 2.801-1.648 4.189-2.494l.395-.241a588.24 588.24 0 0 0 1.878-1.152l.675-.414.592-.365c1.474-.836 2.862-1.118 4.46-.422Z"/>
    <path fill="#F0A953" d="M53.154 4.173c.98.415 1.855.93 2.748 1.507.58.371 1.166.73 1.753 1.09a334.012 334.012 0 0 1 3.106 1.931c1.147.77 1.936 1.389 2.221 2.8.06.68.033 1.2-.325 1.795-1.031 1.205-2.209 1.908-3.592 2.66L58 16.555c-.242.136-.485.273-.728.408a119.54 119.54 0 0 0-3.572 2.102 417.64 417.64 0 0 1-5.144 3.054c-.372.217-.744.436-1.115.654l-.37.217-.735.431c-.729.427-1.459.851-2.19 1.273-.575.333-1.149.67-1.723 1.005l-.628.358c-1.936 1.141-3.294 2.488-3.97 4.685-.373 1.662-.227 3.456-.217 5.147a607.033 607.033 0 0 0-.006 4.969c.004 1.922.002 3.845-.005 5.767-.001.67.001 1.34.004 2.01l-.002 1.232.006.561c-.007 1.04-.107 1.757-.686 2.656-1.198 1.134-2.359 1.342-3.968 1.315-1.204-.167-2.08-.76-3.072-1.43-.194-.123-.388-.246-.587-.374-4.574-2.942-4.574-2.942-5.159-5.396-.086-.854-.087-1.703-.085-2.56l-.005-.759a324.3 324.3 0 0 1-.005-2.045 1030.027 1030.027 0 0 1-.006-5.761c0-1.387-.004-2.774-.012-4.161-.006-1.195-.008-2.39-.007-3.586 0-.712 0-1.424-.006-2.136-.005-.795-.002-1.589.001-2.384L24 23.102c.017-1.682.37-3.057 1.526-4.325.996-.945 2.177-1.587 3.376-2.236.418-.23.835-.462 1.252-.694l.646-.357c1.02-.57 2.028-1.16 3.036-1.752 1.693-.99 3.388-1.976 5.087-2.956l.66-.38a7826.258 7826.258 0 0 1 5.424-3.122 57.552 57.552 0 0 0 2.854-1.719c1.73-1.12 3.166-1.93 5.293-1.387Z"/>
    <path fill="#207279" d="M78.32 20.003c.633.633.634 1.27.644 2.137l.008.549.005.59.005.616a191.048 191.048 0 0 0 .019 2.604c.084 6.11.084 6.11-1.377 8.105-.864.847-1.959 1.416-3.007 2.004-.524.294-1.044.594-1.565.893l-.814.467c-2.13 1.22-4.223 2.508-6.316 3.793-.508.312-1.017.62-1.528.928-1.973 1.205-3.423 2.458-4.137 4.712-.11.91-.103 1.81-.095 2.726l-.004.783c-.005.96-.003 1.92-.001 2.88.002.944-.002 1.888-.007 2.831l.007.745c-.01 1.462-.135 2.767-.914 4.038-.622.585-1.291.992-2.03 1.42l-.968.577a197.078 197.078 0 0 1-2.497 1.45c-.806.424-1.392.517-2.311.511a9.237 9.237 0 0 1-.673-.028c-.183-.014-.464-.05-.654-.074v-.203c.16-.017.318-.034.482-.05.549-.095.549-.095.766-.501.202-.544.223-.962.223-1.542l.002-.662-.003-.723V59.17c-.001-.869 0-1.737.004-2.605.007-2.47.011-4.94.009-7.41-.002-1.363 0-2.728.007-4.092.004-.861.003-1.723 0-2.585-.003-.665.002-1.33.006-1.995l-.007-.716c.02-1.733.388-3.157 1.627-4.422l.507-.334.593-.396.655-.406.353-.219c.776-.478 1.56-.941 2.347-1.4.723-.422 1.445-.848 2.166-1.274l.432-.254a144.158 144.158 0 0 0 3.365-2.053 186.688 186.688 0 0 1 5.1-3.057 169.7 169.7 0 0 0 5.749-3.478c.427-.27.856-.538 1.285-.805l.458-.285.874-.542c.639-.375.639-.375 1.21-.84Z"/>
    <path fill="#EA8153" d="m24.945 19.394.303.237c1.179.915 2.43 1.69 3.705 2.465l.688.42 1.824 1.112 1.158.705a2572.589 2572.589 0 0 0 3.708 2.256l.597.363c.447.266.895.527 1.347.785l.673.384-.261.497c-1.135 2.431-1.122 4.683-1.098 7.33l-.005 1.37c-.003 1.194 0 2.387.004 3.58a918.15 918.15 0 0 1 .001 5.75c0 .667.003 1.334.007 2.001v1.226l.007.559c-.005 1.037-.106 1.751-.684 2.649-1.198 1.134-2.359 1.342-3.968 1.315-1.204-.167-2.08-.76-3.072-1.43-.194-.123-.388-.246-.587-.374-4.575-2.943-4.575-2.943-5.159-5.396-.085-.855-.085-1.705-.082-2.563l-.004-.76a332.85 332.85 0 0 1-.003-2.048c.001-.572 0-1.144-.001-1.716-.003-1.35-.003-2.7 0-4.05.002-1.388-.001-2.777-.006-4.165a753.298 753.298 0 0 1-.005-3.59c0-.712 0-1.425-.003-2.137-.004-.796-.001-1.59.002-2.386l-.006-.707c.013-1.405.228-2.452.92-3.682Z"/>
    <path fill="#1F7177" d="M77.71 40.906c.56.365.92.62 1.219 1.218.055.92.047 1.843.05 2.765l.013.775c.012 2.99.012 2.99-1.024 4.165-1.144 1.088-2.474 1.906-3.831 2.7-.358.212-.713.427-1.069.643-2.015 1.206-3.86 1.849-6.215 1.826l-.482.013c-1.136-.001-1.136-.001-1.642-.475-.483-1.011-.464-1.914-.476-3.013l-.018-.537c-.016-1.698.527-2.959 1.705-4.194a19.45 19.45 0 0 1 1.37-.9l.416-.255c.486-.295.973-.585 1.461-.875l.602-.357a559.83 559.83 0 0 1 2.559-1.505c3.676-2.14 3.676-2.14 5.363-1.994Z"/>
  </g>
  <path fill="#000" d="M109 23.664v3.616h-9.312v5.728h7.136v3.552h-7.136V46h-4.48V23.664H109Zm5.449 2.496c-.79 0-1.451-.245-1.984-.736-.512-.512-.768-1.141-.768-1.888 0-.747.256-1.365.768-1.856.533-.512 1.194-.768 1.984-.768.789 0 1.44.256 1.952.768.533.49.8 1.11.8 1.856 0 .747-.267 1.376-.8 1.888-.512.49-1.163.736-1.952.736Zm2.208 2.112V46h-4.48V28.272h4.48Zm14.25-.256c2.112 0 3.819.672 5.12 2.016 1.301 1.323 1.952 3.179 1.952 5.568V46h-4.48v-9.792c0-1.408-.352-2.485-1.056-3.232-.704-.768-1.664-1.152-2.88-1.152-1.237 0-2.219.384-2.944 1.152-.704.747-1.056 1.824-1.056 3.232V46h-4.48V28.272h4.48v2.208a6.074 6.074 0 0 1 2.272-1.792c.939-.448 1.963-.672 3.072-.672Zm26.532-4.352v3.616h-5.952V46h-4.48V27.28h-5.952v-3.616h16.384Zm7.749 7.36a6.343 6.343 0 0 1 2.24-2.208c.939-.533 2.005-.8 3.2-.8v4.704h-1.184c-1.408 0-2.475.33-3.2.992-.704.661-1.056 1.813-1.056 3.456V46h-4.48V28.272h4.48v2.752Zm7.305 6.048c0-1.792.352-3.381 1.056-4.768.726-1.387 1.697-2.453 2.913-3.2 1.237-.747 2.613-1.12 4.128-1.12 1.322 0 2.474.267 3.456.8 1.002.533 1.802 1.205 2.4 2.016v-2.528h4.512V46h-4.512v-2.592c-.576.832-1.376 1.525-2.4 2.08-1.003.533-2.166.8-3.488.8-1.494 0-2.859-.384-4.096-1.152-1.216-.768-2.187-1.845-2.913-3.232-.704-1.408-1.056-3.019-1.056-4.832Zm13.953.064c0-1.088-.214-2.016-.64-2.784-.427-.79-1.003-1.387-1.728-1.792a4.531 4.531 0 0 0-2.336-.64c-.832 0-1.6.203-2.304.608-.704.405-1.28 1.003-1.728 1.792-.427.768-.64 1.685-.64 2.752 0 1.067.213 2.005.64 2.816.448.79 1.024 1.397 1.728 1.824.725.427 1.493.64 2.304.64.832 0 1.61-.203 2.336-.608a4.66 4.66 0 0 0 1.728-1.792c.426-.79.64-1.728.64-2.816Zm7.735 0c0-1.835.373-3.435 1.12-4.8.747-1.387 1.781-2.453 3.104-3.2 1.323-.768 2.837-1.152 4.544-1.152 2.197 0 4.011.555 5.44 1.664 1.451 1.088 2.421 2.624 2.912 4.608h-4.832c-.256-.768-.693-1.365-1.312-1.792-.597-.448-1.344-.672-2.24-.672-1.28 0-2.293.47-3.04 1.408-.747.917-1.12 2.23-1.12 3.936 0 1.685.373 2.997 1.12 3.936.747.917 1.76 1.376 3.04 1.376 1.813 0 2.997-.81 3.552-2.432h4.832c-.491 1.92-1.461 3.445-2.912 4.576-1.451 1.13-3.264 1.696-5.44 1.696-1.707 0-3.221-.373-4.544-1.12a8.144 8.144 0 0 1-3.104-3.2c-.747-1.387-1.12-2.997-1.12-4.832ZM225.079 46l-6.016-7.552V46h-4.48V22.32h4.48v13.472l5.952-7.52h5.824l-7.808 8.896L230.903 46h-5.824Z"/>
  <defs>
    <clipPath id="a">
      <path fill="#fff" d="M24 4h55.031v61.364H24z"/>
    </clipPath>
    <clipPath id="b">
      <path fill="#fff" d="M24 4h55.031v61.364H24z"/>
    </clipPath>
  </defs>
</svg>
